<mxfile host="app.diagrams.net" modified="2023-03-21T09:42:50.384Z" agent="5.0 (Windows NT 10.0; Win64; x64) AppleWebKit/537.36 (KHTML, like Gecko) Chrome/111.0.0.0 Safari/537.36" etag="sbL97s-E5q8KwZ9CF-NQ" version="21.0.6" type="github">
  <diagram name="第 1 页" id="L3FLegalXn3CVVKwqrcS">
    <mxGraphModel dx="1434" dy="764" grid="1" gridSize="10" guides="1" tooltips="1" connect="1" arrows="1" fold="1" page="1" pageScale="1" pageWidth="827" pageHeight="1169" math="0" shadow="0">
      <root>
        <mxCell id="0" />
        <mxCell id="1" parent="0" />
        <mxCell id="SewCIVaRL9v1yxPPFUk1-1" value="" style="rounded=0;whiteSpace=wrap;html=1;fillColor=#f5f5f5;fontColor=#333333;strokeColor=#666666;" parent="1" vertex="1">
          <mxGeometry x="70" y="110" width="710" height="440" as="geometry" />
        </mxCell>
        <mxCell id="SewCIVaRL9v1yxPPFUk1-2" value="Client" style="rounded=1;whiteSpace=wrap;html=1;fillColor=#f8cecc;strokeColor=#b85450;" parent="1" vertex="1">
          <mxGeometry x="150" y="130" width="240" height="60" as="geometry" />
        </mxCell>
        <mxCell id="SewCIVaRL9v1yxPPFUk1-3" value="Client" style="rounded=1;whiteSpace=wrap;html=1;fillColor=#f8cecc;strokeColor=#b85450;" parent="1" vertex="1">
          <mxGeometry x="420" y="130" width="240" height="60" as="geometry" />
        </mxCell>
        <mxCell id="SewCIVaRL9v1yxPPFUk1-4" value="MongoDB Query Language" style="rounded=1;whiteSpace=wrap;html=1;fillColor=#dae8fc;strokeColor=#6c8ebf;" parent="1" vertex="1">
          <mxGeometry x="150" y="230" width="510" height="60" as="geometry" />
        </mxCell>
        <mxCell id="SewCIVaRL9v1yxPPFUk1-5" value="MongoDB Data Model" style="rounded=1;whiteSpace=wrap;html=1;fillColor=#fff2cc;strokeColor=#d6b656;" parent="1" vertex="1">
          <mxGeometry x="150" y="315" width="510" height="60" as="geometry" />
        </mxCell>
        <mxCell id="SewCIVaRL9v1yxPPFUk1-6" value="Wired Tiger&amp;nbsp;" style="rounded=1;whiteSpace=wrap;html=1;fillColor=#647687;fontColor=#ffffff;strokeColor=#314354;" parent="1" vertex="1">
          <mxGeometry x="150" y="410" width="90" height="60" as="geometry" />
        </mxCell>
        <mxCell id="SewCIVaRL9v1yxPPFUk1-7" value="MMAPv1" style="rounded=1;whiteSpace=wrap;html=1;fillColor=#647687;fontColor=#ffffff;strokeColor=#314354;" parent="1" vertex="1">
          <mxGeometry x="250" y="410" width="90" height="60" as="geometry" />
        </mxCell>
        <mxCell id="SewCIVaRL9v1yxPPFUk1-8" value="IN Memory" style="rounded=1;whiteSpace=wrap;html=1;fillColor=#647687;fontColor=#ffffff;strokeColor=#314354;" parent="1" vertex="1">
          <mxGeometry x="350" y="410" width="90" height="60" as="geometry" />
        </mxCell>
        <mxCell id="SewCIVaRL9v1yxPPFUk1-9" value="Encrypted" style="rounded=1;whiteSpace=wrap;html=1;fillColor=#647687;fontColor=#ffffff;strokeColor=#314354;" parent="1" vertex="1">
          <mxGeometry x="460" y="410" width="90" height="60" as="geometry" />
        </mxCell>
        <mxCell id="SewCIVaRL9v1yxPPFUk1-10" value="3rd Party Engine" style="rounded=1;whiteSpace=wrap;html=1;fillColor=#647687;fontColor=#ffffff;strokeColor=#314354;" parent="1" vertex="1">
          <mxGeometry x="570" y="410" width="90" height="60" as="geometry" />
        </mxCell>
        <mxCell id="nkxoI-2OtnAkrnybQSNn-1" value="文件系统" style="rounded=1;whiteSpace=wrap;html=1;" vertex="1" parent="1">
          <mxGeometry x="160" y="500" width="490" height="40" as="geometry" />
        </mxCell>
        <mxCell id="nkxoI-2OtnAkrnybQSNn-2" value="连接层" style="rounded=1;whiteSpace=wrap;html=1;fillColor=#d5e8d4;strokeColor=#82b366;" vertex="1" parent="1">
          <mxGeometry x="700" y="130" width="70" height="60" as="geometry" />
        </mxCell>
        <mxCell id="nkxoI-2OtnAkrnybQSNn-3" value="处理层" style="rounded=1;whiteSpace=wrap;html=1;fillColor=#ffe6cc;strokeColor=#d79b00;" vertex="1" parent="1">
          <mxGeometry x="750" y="230" width="20" height="150" as="geometry" />
        </mxCell>
        <mxCell id="nkxoI-2OtnAkrnybQSNn-5" value="服务层" style="rounded=1;whiteSpace=wrap;html=1;fillColor=#d5e8d4;strokeColor=#82b366;" vertex="1" parent="1">
          <mxGeometry x="700" y="225" width="45" height="245" as="geometry" />
        </mxCell>
        <mxCell id="nkxoI-2OtnAkrnybQSNn-7" value="存储引擎层" style="rounded=1;whiteSpace=wrap;html=1;fillColor=#ffe6cc;strokeColor=#d79b00;" vertex="1" parent="1">
          <mxGeometry x="750" y="390" width="20" height="80" as="geometry" />
        </mxCell>
      </root>
    </mxGraphModel>
  </diagram>
</mxfile>
